# Blender v2.77 (sub 0) OBJ File: ''
# www.blender.org
mtllib pinwheel.mtl
o Wheel_Cube.001
v -1.000000 7.000000 1.000000
v -1.000000 9.000000 1.000000
v -1.000000 7.000000 -1.000000
v -1.000000 9.000000 -1.000000
v 1.000000 7.000000 1.000000
v 1.000000 9.000000 1.000000
v 1.000000 7.000000 -1.000000
v 1.000000 9.000000 -1.000000
v -9.000000 9.000000 1.000000
v -9.000000 9.000000 -1.000000
v -9.000000 7.000000 -1.000000
v -9.000000 7.000000 1.000000
v 9.000000 9.000000 -1.000000
v 9.000000 9.000000 1.000000
v 9.000000 7.000000 1.000000
v 9.000000 7.000000 -1.000000
v -1.000000 -1.000000 1.000000
v -1.000000 -1.000000 -1.000000
v 1.000000 -1.000000 -1.000000
v 1.000000 -1.000000 1.000000
v 1.000000 17.000000 1.000000
v 1.000000 17.000000 -1.000000
v -1.000000 17.000000 -1.000000
v -1.000000 17.000000 1.000000
vt 2.0000 0.0000
vt 0.0000 -2.0000
vt 0.0000 0.0000
vt -2.0000 0.0000
vt 0.0000 -2.0000
vt 0.0000 0.0000
vt 2.0000 0.0000
vt 0.0000 -2.0000
vt 0.0000 0.0000
vt -8.0000 0.0000
vt 0.0000 -2.0000
vt -8.0000 0.0000
vt 0.0000 2.0000
vt 0.0000 0.0000
vt -8.0000 0.0000
vt 0.0000 2.0000
vt 0.0000 0.0000
vt -8.0000 0.0000
vt 0.0000 -2.0000
vt 0.0000 0.0000
vt -2.0000 0.0000
vt 0.0000 -2.0000
vt 0.0000 0.0000
vt 8.0000 0.0000
vt 0.0000 2.0000
vt 8.0000 0.0000
vt 0.0000 2.0000
vt 0.0000 0.0000
vt 8.0000 0.0000
vt 0.0000 0.0000
vt 8.0000 0.0000
vt 0.0000 -2.0000
vt 0.0000 0.0000
vt 0.0000 2.0000
vt 2.0000 0.0000
vt 0.0000 0.0000
vt 0.0000 -8.0000
vt -2.0000 0.0000
vt 0.0000 -8.0000
vt -2.0000 0.0000
vt 0.0000 -8.0000
vt 2.0000 0.0000
vt 0.0000 -8.0000
vt 2.0000 0.0000
vt 0.0000 2.0000
vt -2.0000 0.0000
vt 0.0000 0.0000
vt 0.0000 8.0000
vt -2.0000 0.0000
vt 0.0000 8.0000
vt 0.0000 8.0000
vt 2.0000 0.0000
vt 0.0000 8.0000
vt 2.0000 -2.0000
vt -2.0000 -2.0000
vt 2.0000 -2.0000
vt -8.0000 -2.0000
vt -8.0000 2.0000
vt -8.0000 2.0000
vt -8.0000 -2.0000
vt -2.0000 -2.0000
vt 8.0000 2.0000
vt 8.0000 2.0000
vt 8.0000 -2.0000
vt 8.0000 -2.0000
vt 2.0000 2.0000
vt -2.0000 -8.0000
vt -2.0000 -8.0000
vt 2.0000 -8.0000
vt 2.0000 -8.0000
vt -2.0000 2.0000
vt -2.0000 8.0000
vt 2.0000 8.0000
vt 2.0000 8.0000
vt -2.0000 8.0000
vn 0.0000 0.0000 -1.0000
vn 0.0000 0.0000 1.0000
vn -1.0000 0.0000 0.0000
vn 0.0000 1.0000 0.0000
vn 0.0000 -1.0000 0.0000
vn 1.0000 0.0000 0.0000
usemtl Material
s off
f 8/1/1 3/2/1 4/3/1
f 2/4/2 5/5/2 6/6/2
f 10/7/3 12/8/3 9/9/3
f 10/10/4 2/11/4 4/3/4
f 11/12/1 4/13/1 3/14/1
f 12/15/5 3/16/5 1/17/5
f 9/18/2 1/19/2 2/20/2
f 14/21/6 16/22/6 13/23/6
f 14/24/4 8/25/4 6/6/4
f 15/26/2 6/27/2 5/28/2
f 16/29/5 5/5/5 7/30/5
f 13/31/1 7/32/1 8/33/1
f 18/34/5 20/35/5 17/36/5
f 18/37/3 1/38/3 3/14/3
f 19/39/1 3/40/1 7/30/1
f 20/41/6 7/42/6 5/28/6
f 17/43/2 5/44/2 1/17/2
f 22/45/4 24/46/4 21/47/4
f 22/48/6 6/49/6 8/33/6
f 23/50/1 8/1/1 4/3/1
f 24/51/3 4/52/3 2/20/3
f 21/53/2 2/4/2 6/6/2
f 8/1/1 7/54/1 3/2/1
f 2/4/2 1/55/2 5/5/2
f 10/7/3 11/56/3 12/8/3
f 10/10/4 9/57/4 2/11/4
f 11/12/1 10/58/1 4/13/1
f 12/15/5 11/59/5 3/16/5
f 9/18/2 12/60/2 1/19/2
f 14/21/6 15/61/6 16/22/6
f 14/24/4 13/62/4 8/25/4
f 15/26/2 14/63/2 6/27/2
f 16/29/5 15/64/5 5/5/5
f 13/31/1 16/65/1 7/32/1
f 18/34/5 19/66/5 20/35/5
f 18/37/3 17/67/3 1/38/3
f 19/39/1 18/68/1 3/40/1
f 20/41/6 19/69/6 7/42/6
f 17/43/2 20/70/2 5/44/2
f 22/45/4 23/71/4 24/46/4
f 22/48/6 21/72/6 6/49/6
f 23/50/1 22/73/1 8/1/1
f 24/51/3 23/74/3 4/52/3
f 21/53/2 24/75/2 2/4/2
o Cube
v 2.000000 -1.000000 -24.000000
v 2.000000 -1.000000 24.000000
v -2.000000 -1.000000 24.000000
v -1.999999 -1.000000 -24.000000
v 2.000001 0.000000 -24.000000
v 1.999999 0.000000 24.000002
v -2.000001 0.000000 24.000000
v -2.000000 0.000000 -24.000000
vt 0.5000 -35.5000
vt -3.5000 12.5000
vt 0.5000 12.5000
vt -3.5000 12.5000
vt 0.5000 -35.5000
vt 0.5000 12.5000
vt -47.5000 11.5000
vt 0.5000 11.5000
vt 0.5000 12.5000
vt -3.5000 11.5000
vt 0.5000 11.5000
vt 0.5000 12.5000
vt 48.5000 11.5000
vt 0.5000 11.5000
vt -3.5000 -35.5000
vt -3.5000 -35.5000
vt -47.5000 12.5000
vt -3.5000 12.5000
vt 48.5000 12.5000
vt -3.5000 11.5000
vn 0.0000 -1.0000 0.0000
vn 0.0000 1.0000 0.0000
vn 1.0000 -0.0000 0.0000
vn 0.0000 -0.0000 1.0000
vn -1.0000 -0.0000 -0.0000
vn 0.0000 0.0000 -1.0000
usemtl Material
s off
f 26/76/7 28/77/7 25/78/7
f 32/79/8 30/80/8 29/81/8
f 29/81/9 26/82/9 25/83/9
f 30/84/10 27/85/10 26/86/10
f 31/87/11 28/88/11 27/89/11
f 25/83/12 32/79/12 29/81/12
f 26/76/7 27/90/7 28/77/7
f 32/79/8 31/91/8 30/80/8
f 29/81/9 30/92/9 26/82/9
f 30/84/10 31/93/10 27/85/10
f 31/87/11 32/94/11 28/88/11
f 25/83/12 28/95/12 32/79/12
