# Blender v2.77 (sub 0) OBJ File: 'st001.blend'
# www.blender.org
mtllib st001.mtl
o Cube
v 4.000000 -1.000000 -8.000000
v 4.000000 -1.000000 8.000000
v -4.000000 -1.000000 7.999998
v -3.999998 -1.000000 -8.000003
v 4.000002 1.000000 -7.999996
v 3.999998 1.000000 8.000005
v -4.000001 1.000000 7.999997
v -4.000000 1.000000 -8.000000
v 2.000001 0.000000 -7.999997
v -1.999999 0.000000 -7.999999
v 1.999999 0.000000 4.000003
v -2.000001 0.000000 4.000000
v 3.000002 1.000000 -7.999997
v 2.999998 1.000000 6.000004
v -3.000000 1.000000 -8.000000
v -3.000001 1.000000 5.999998
v -4.000000 -3.000000 -10.000000
v -4.000000 -2.000000 -10.000000
v -4.000000 -3.000000 -18.000000
v -4.000000 -2.000000 -18.000000
v 4.000000 -3.000000 -10.000000
v 4.000000 -2.000000 -10.000000
v 4.000000 -3.000000 -18.000000
v 4.000000 -2.000000 -18.000000
v 2.000000 -1.000000 -12.000000
v -2.000000 -1.000000 -12.000000
v 2.000000 -1.000000 -16.000000
v -2.000000 -1.000000 -16.000000
v -4.000000 -5.000000 -20.000000
v -4.000000 -3.000000 -20.000000
v -4.000000 -5.000000 -28.000000
v -4.000000 -3.000000 -28.000000
v 4.000000 -5.000000 -20.000000
v 4.000000 -3.000000 -20.000000
v 4.000000 -5.000000 -28.000000
v 4.000000 -3.000000 -28.000000
v 2.000000 -4.000000 -22.000000
v -2.000000 -4.000000 -22.000000
v 2.000000 -4.000000 -26.000000
v -2.000000 -4.000000 -26.000000
v -4.000000 -7.000000 -30.000000
v -4.000000 -6.000000 -30.000000
v -4.000000 -7.000000 -38.000000
v -4.000000 -6.000000 -38.000000
v 4.000000 -7.000000 -30.000000
v 4.000000 -6.000000 -30.000000
v 4.000000 -7.000000 -38.000000
v 4.000000 -6.000000 -38.000000
v 2.000000 -5.000000 -32.000000
v -2.000000 -5.000000 -32.000000
v 2.000000 -5.000000 -36.000000
v -2.000000 -5.000000 -36.000000
vt 1.5000 -3.0000
vt -0.5000 -9.0000
vt 1.5000 -9.0000
vt 2.5000 -2.0000
vt 1.5000 1.0000
vt 1.5000 -1.0000
vt -0.5000 -1.0000
vt -1.5000 -2.0000
vt -1.5000 2.0000
vt -0.5000 1.0000
vt 2.5000 2.0000
vt 2.5000 3.0000
vt 1.5000 6.0000
vt 1.5000 4.0000
vt -0.5000 4.0000
vt -1.5000 3.0000
vt -1.5000 7.0000
vt -0.5000 6.0000
vt 2.5000 7.0000
vt 2.5000 8.0000
vt 1.5000 11.0000
vt 1.5000 9.0000
vt -0.5000 9.0000
vt -1.5000 8.0000
vt -1.5000 12.0000
vt -0.5000 11.0000
vt 2.5000 12.0000
vt -0.5000 -3.0000
vt 2.5000 -11.0000
vt -1.5000 -3.0000
vt 2.5000 -3.0000
vt 2.5000 -3.0000
vt 2.5000 -11.0000
vt -1.5000 -11.0000
vt -1.5000 -11.0000
vt -1.0000 -10.0000
vt 2.0000 -10.0000
vt -1.0000 -3.0000
vt 2.0000 -3.0000
vt -1.5000 -2.0000
vt -1.5000 2.0000
vt 2.5000 2.0000
vt 2.5000 -2.0000
vt -1.5000 3.0000
vt -1.5000 7.0000
vt 2.5000 7.0000
vt 2.5000 3.0000
vt -1.5000 8.0000
vt -1.5000 12.0000
vt 2.5000 12.0000
vt 2.5000 8.0000
vt -1.5000 -3.0000
vn 0.0000 1.0000 0.0000
vn 0.4472 0.8944 0.0000
vn 0.0000 0.8944 0.4472
vn -0.4472 0.8944 0.0000
vn 0.0000 0.8944 -0.4472
vn 0.0000 -1.0000 0.0000
vn 1.0000 -0.0000 0.0000
vn 0.0000 -0.0000 1.0000
vn -1.0000 -0.0000 -0.0000
vn 0.0000 0.0000 -1.0000
vn 0.7071 0.7071 0.0000
vn -0.7071 0.7071 -0.0000
usemtl Material
s off
f 9/1/1 12/2/1 11/3/1
f 22/4/2 27/5/2 25/6/2
f 27/5/1 26/7/1 25/6/1
f 18/8/3 25/6/3 26/7/3
f 20/9/4 26/7/4 28/10/4
f 28/10/5 24/11/5 20/9/5
f 34/12/4 39/13/4 37/14/4
f 39/13/1 38/15/1 37/14/1
f 30/16/5 37/14/5 38/15/5
f 32/17/2 38/15/2 40/18/2
f 40/18/3 36/19/3 32/17/3
f 46/20/2 51/21/2 49/22/2
f 51/21/1 50/23/1 49/22/1
f 42/24/3 49/22/3 50/23/3
f 44/25/4 50/23/4 52/26/4
f 52/26/5 48/27/5 44/25/5
f 9/1/1 10/28/1 12/2/1
f 22/4/2 24/11/2 27/5/2
f 27/5/1 28/10/1 26/7/1
f 18/8/3 22/4/3 25/6/3
f 20/9/4 18/8/4 26/7/4
f 28/10/5 27/5/5 24/11/5
f 34/12/4 36/19/4 39/13/4
f 39/13/1 40/18/1 38/15/1
f 30/16/5 34/12/5 37/14/5
f 32/17/2 30/16/2 38/15/2
f 40/18/3 39/13/3 36/19/3
f 46/20/2 48/27/2 51/21/2
f 51/21/1 52/26/1 50/23/1
f 42/24/3 46/20/3 49/22/3
f 44/25/4 42/24/4 50/23/4
f 52/26/5 51/21/5 48/27/5
usemtl Material.001
f 2/29/6 4/30/6 1/31/6
f 5/32/7 2/29/7 1/31/7
f 6/33/8 3/34/8 2/29/8
f 7/35/9 4/30/9 3/34/9
f 1/31/10 4/30/10 9/1/10
f 16/36/1 7/35/1 14/37/1
f 15/38/11 12/2/11 10/28/11
f 11/3/12 13/39/12 9/1/12
f 16/36/5 11/3/5 12/2/5
f 20/9/9 17/40/9 18/8/9
f 24/11/10 19/41/10 20/9/10
f 22/4/7 23/42/7 24/11/7
f 18/8/8 21/43/8 22/4/8
f 19/41/6 21/43/6 17/40/6
f 32/17/9 29/44/9 30/16/9
f 36/19/10 31/45/10 32/17/10
f 34/12/7 35/46/7 36/19/7
f 30/16/8 33/47/8 34/12/8
f 31/45/6 33/47/6 29/44/6
f 44/25/9 41/48/9 42/24/9
f 48/27/10 43/49/10 44/25/10
f 46/20/7 47/50/7 48/27/7
f 42/24/8 45/51/8 46/20/8
f 43/49/6 45/51/6 41/48/6
f 2/29/6 3/34/6 4/30/6
f 5/32/7 6/33/7 2/29/7
f 6/33/8 7/35/8 3/34/8
f 7/35/9 8/52/9 4/30/9
f 13/39/10 5/32/10 1/31/10
f 4/30/10 8/52/10 15/38/10
f 4/30/10 15/38/10 10/28/10
f 9/1/10 13/39/10 1/31/10
f 4/30/10 10/28/10 9/1/10
f 5/32/1 13/39/1 14/37/1
f 16/36/1 15/38/1 8/52/1
f 6/33/1 5/32/1 14/37/1
f 16/36/1 8/52/1 7/35/1
f 6/33/1 14/37/1 7/35/1
f 15/38/11 16/36/11 12/2/11
f 11/3/12 14/37/12 13/39/12
f 16/36/5 14/37/5 11/3/5
f 20/9/9 19/41/9 17/40/9
f 24/11/10 23/42/10 19/41/10
f 22/4/7 21/43/7 23/42/7
f 18/8/8 17/40/8 21/43/8
f 19/41/6 23/42/6 21/43/6
f 32/17/9 31/45/9 29/44/9
f 36/19/10 35/46/10 31/45/10
f 34/12/7 33/47/7 35/46/7
f 30/16/8 29/44/8 33/47/8
f 31/45/6 35/46/6 33/47/6
f 44/25/9 43/49/9 41/48/9
f 48/27/10 47/50/10 43/49/10
f 46/20/7 45/51/7 47/50/7
f 42/24/8 41/48/8 45/51/8
f 43/49/6 47/50/6 45/51/6
