# Blender v2.77 (sub 0) OBJ File: 'st099.blend'
# www.blender.org
mtllib st099.mtl
o Cube
v 8.000000 -0.250000 -8.000000
v 8.000000 -0.250000 8.000000
v -8.000001 -0.250000 7.999998
v -7.999996 -0.250000 -8.000003
v 8.000004 0.000000 -7.999996
v 7.999995 0.000000 8.000005
v -8.000003 0.000000 7.999997
v -7.999999 0.000000 -8.000000
v -8.125000 0.625000 8.125000
v -8.125000 1.125000 8.125000
v -8.125000 0.625000 7.875000
v -8.125000 1.125000 7.875000
v -7.875000 0.625000 8.125000
v -7.875000 1.125000 8.125000
v -7.875000 0.625000 7.875000
v -7.875000 1.125000 7.875000
v 7.875000 1.125000 7.875000
v 7.875000 0.625000 7.875000
v 7.875000 1.125000 8.125000
v 7.875000 0.625000 8.125000
v 8.125000 1.125000 7.875000
v 8.125000 0.625000 7.875000
v 8.125000 1.125000 8.125000
v 8.125000 0.625000 8.125000
v 7.875000 1.125000 -7.875000
v 7.875000 0.625000 -7.875000
v 8.125000 1.125000 -7.875000
v 8.125000 0.625000 -7.875000
v 7.875000 1.125000 -8.125000
v 7.875000 0.625000 -8.125000
v 8.125000 1.125000 -8.125000
v 8.125000 0.625000 -8.125000
v -7.875000 1.125000 -7.875000
v -7.875000 0.625000 -7.875000
v -7.875000 1.125000 -8.125000
v -7.875000 0.625000 -8.125000
v -8.125000 1.125000 -7.875000
v -8.125000 0.625000 -7.875000
v -8.125000 1.125000 -8.125000
v -8.125000 0.625000 -8.125000
v -8.250000 -0.375000 8.250000
v -8.250000 0.125000 8.250000
v -8.250000 -0.375000 7.750000
v -8.250000 0.125000 7.750000
v -7.750000 -0.375000 8.250000
v -7.750000 0.125000 8.250000
v -7.750000 -0.375000 7.750000
v -7.750000 0.125000 7.750000
v 7.750000 0.125000 7.750000
v 7.750000 -0.375000 7.750000
v 7.750000 0.125000 8.250000
v 7.750000 -0.375000 8.250000
v 8.250000 0.125000 7.750000
v 8.250000 -0.375000 7.750000
v 8.250000 0.125000 8.250000
v 8.250000 -0.375000 8.250000
v 7.750000 0.125000 -7.750000
v 7.750000 -0.375000 -7.750000
v 8.250000 0.125000 -7.750000
v 8.250000 -0.375000 -7.750000
v 7.750000 0.125000 -8.250000
v 7.750000 -0.375000 -8.250000
v 8.250000 0.125000 -8.250000
v 8.250000 -0.375000 -8.250000
v -7.750000 0.125000 -7.750000
v -7.750000 -0.375000 -7.750000
v -7.750000 0.125000 -8.250000
v -7.750000 -0.375000 -8.250000
v -8.250000 0.125000 -7.750000
v -8.250000 -0.375000 -7.750000
v -8.250000 0.125000 -8.250000
v -8.250000 -0.375000 -8.250000
v -7.750000 0.125000 7.750000
v -7.750000 -0.375000 7.750000
v -8.250000 0.125000 7.750000
v -8.250000 -0.375000 7.750000
vt 0.9848 0.0152
vt 0.0152 0.9848
vt 0.9848 0.9848
vt 0.0152 0.9848
vt 0.9848 0.0152
vt 0.9848 0.9848
vt 0.0152 0.0152
vt 0.0152 0.0152
vt 0.0076 0.0227
vt 0.0076 0.0076
vt 0.0076 0.0076
vt 0.0227 0.0227
vt 0.9773 0.0076
vt 0.0227 0.0076
vt 0.0227 0.0076
vt 0.0076 0.0227
vt 0.0227 0.0227
vt 0.9773 0.0227
vt 0.9924 0.0076
vt 0.9773 0.0227
vt 0.9773 0.0076
vt 0.9924 0.0076
vt 0.9924 0.0227
vt 0.9924 0.0227
vt 0.9924 0.9773
vt 0.9924 0.9773
vt 0.9773 0.9924
vt 0.9773 0.9773
vt 0.9773 0.9773
vt 0.9924 0.9924
vt 0.9773 0.9924
vt 0.9924 0.9924
vt 0.0227 0.9924
vt 0.0076 0.9773
vt 0.0227 0.9773
vt 0.0227 0.9924
vt 0.0227 0.9773
vt 0.0076 0.9924
vt 0.0076 0.9773
vt 0.0076 0.9924
vt 0.0000 0.0303
vt 0.0000 0.0000
vt 0.0000 0.0000
vt 0.0303 0.0303
vt 0.9697 0.0000
vt 0.0303 0.0000
vt 0.0303 0.0000
vt 0.0000 0.0303
vt 0.0303 0.0303
vt 0.9697 0.0303
vt 1.0000 0.0000
vt 0.9697 0.0303
vt 0.9697 0.0000
vt 1.0000 0.0000
vt 1.0000 0.0303
vt 1.0000 0.0303
vt 1.0000 0.9697
vt 1.0000 0.9697
vt 0.9697 1.0000
vt 0.9697 0.9697
vt 0.9697 0.9697
vt 1.0000 1.0000
vt 0.9697 1.0000
vt 1.0000 1.0000
vt 0.0303 1.0000
vt 0.0000 0.9697
vt 0.0303 0.9697
vt 0.0303 1.0000
vt 0.0303 0.9697
vt 0.0000 1.0000
vt 0.0000 0.9697
vt 0.0303 0.0303
vt 0.0000 1.0000
vt 0.0303 0.0303
vt 0.0000 0.0303
vt 0.0000 0.0303
vn 0.0000 -1.0000 0.0000
vn 0.0000 1.0000 0.0000
vn 1.0000 -0.0000 0.0000
vn 0.0000 -0.0000 1.0000
vn -1.0000 -0.0000 -0.0000
vn 0.0000 0.0000 -1.0000
usemtl Material
s off
f 2/1/1 4/2/1 1/3/1
f 8/4/2 6/5/2 5/6/2
f 5/6/3 2/1/3 1/3/3
f 6/5/4 3/7/4 2/1/4
f 3/7/5 8/4/5 4/2/5
f 1/3/6 8/4/6 5/6/6
f 2/1/1 3/7/1 4/2/1
f 8/4/2 7/8/2 6/5/2
f 5/6/3 6/5/3 2/1/3
f 6/5/4 7/8/4 3/7/4
f 3/7/5 7/8/5 8/4/5
f 1/3/6 4/2/6 8/4/6
usemtl Material.001
f 12/9/5 9/10/5 10/11/5
f 15/12/1 20/13/1 13/14/1
f 10/11/4 13/14/4 14/15/4
f 11/16/1 13/14/1 9/10/1
f 16/17/2 10/11/2 14/15/2
f 18/18/1 24/19/1 20/13/1
f 14/15/2 17/20/2 16/17/2
f 16/17/6 18/18/6 15/12/6
f 13/14/4 19/21/4 14/15/4
f 23/22/3 22/23/3 21/24/3
f 19/21/2 21/24/2 17/20/2
f 20/13/4 23/22/4 19/21/4
f 18/18/1 28/25/1 22/23/1
f 27/26/2 29/27/2 25/28/2
f 22/23/3 27/26/3 21/24/3
f 21/24/2 25/28/2 17/20/2
f 17/20/5 26/29/5 18/18/5
f 29/27/6 32/30/6 30/31/6
f 28/25/3 31/32/3 27/26/3
f 26/29/1 32/30/1 28/25/1
f 30/31/6 35/33/6 29/27/6
f 35/33/2 37/34/2 33/35/2
f 26/29/1 36/36/1 30/31/1
f 29/27/2 33/35/2 25/28/2
f 25/28/4 34/37/4 26/29/4
f 37/34/5 40/38/5 38/39/5
f 37/34/2 16/17/2 33/35/2
f 34/37/1 40/38/1 36/36/1
f 36/36/6 39/40/6 35/33/6
f 33/35/3 15/12/3 34/37/3
f 34/37/1 11/16/1 38/39/1
f 38/39/5 12/9/5 37/34/5
f 12/9/5 11/16/5 9/10/5
f 15/12/1 18/18/1 20/13/1
f 10/11/4 9/10/4 13/14/4
f 11/16/1 15/12/1 13/14/1
f 16/17/2 12/9/2 10/11/2
f 18/18/1 22/23/1 24/19/1
f 14/15/2 19/21/2 17/20/2
f 16/17/6 17/20/6 18/18/6
f 13/14/4 20/13/4 19/21/4
f 23/22/3 24/19/3 22/23/3
f 19/21/2 23/22/2 21/24/2
f 20/13/4 24/19/4 23/22/4
f 18/18/1 26/29/1 28/25/1
f 27/26/2 31/32/2 29/27/2
f 22/23/3 28/25/3 27/26/3
f 21/24/2 27/26/2 25/28/2
f 17/20/5 25/28/5 26/29/5
f 29/27/6 31/32/6 32/30/6
f 28/25/3 32/30/3 31/32/3
f 26/29/1 30/31/1 32/30/1
f 30/31/6 36/36/6 35/33/6
f 35/33/2 39/40/2 37/34/2
f 26/29/1 34/37/1 36/36/1
f 29/27/2 35/33/2 33/35/2
f 25/28/4 33/35/4 34/37/4
f 37/34/5 39/40/5 40/38/5
f 37/34/2 12/9/2 16/17/2
f 34/37/1 38/39/1 40/38/1
f 36/36/6 40/38/6 39/40/6
f 33/35/3 16/17/3 15/12/3
f 34/37/1 15/12/1 11/16/1
f 38/39/5 11/16/5 12/9/5
usemtl Material.002
f 44/41/5 41/42/5 42/43/5
f 47/44/1 52/45/1 45/46/1
f 42/43/4 45/46/4 46/47/4
f 43/48/1 45/46/1 41/42/1
f 48/49/2 42/43/2 46/47/2
f 50/50/1 56/51/1 52/45/1
f 46/47/2 49/52/2 48/49/2
f 48/49/6 50/50/6 47/44/6
f 45/46/4 51/53/4 46/47/4
f 55/54/3 54/55/3 53/56/3
f 51/53/2 53/56/2 49/52/2
f 52/45/4 55/54/4 51/53/4
f 50/50/1 60/57/1 54/55/1
f 59/58/2 61/59/2 57/60/2
f 54/55/3 59/58/3 53/56/3
f 53/56/2 57/60/2 49/52/2
f 49/52/5 58/61/5 50/50/5
f 61/59/6 64/62/6 62/63/6
f 60/57/3 63/64/3 59/58/3
f 58/61/1 64/62/1 60/57/1
f 62/63/6 67/65/6 61/59/6
f 67/65/2 69/66/2 65/67/2
f 58/61/1 68/68/1 62/63/1
f 61/59/2 65/67/2 57/60/2
f 57/60/4 66/69/4 58/61/4
f 69/66/5 72/70/5 70/71/5
f 69/66/2 73/72/2 65/67/2
f 66/69/1 72/70/1 68/68/1
f 68/68/6 71/73/6 67/65/6
f 65/67/3 74/74/3 66/69/3
f 66/69/1 76/75/1 70/71/1
f 70/71/5 75/76/5 69/66/5
f 44/41/5 43/48/5 41/42/5
f 47/44/1 50/50/1 52/45/1
f 42/43/4 41/42/4 45/46/4
f 43/48/1 47/44/1 45/46/1
f 48/49/2 44/41/2 42/43/2
f 50/50/1 54/55/1 56/51/1
f 46/47/2 51/53/2 49/52/2
f 48/49/6 49/52/6 50/50/6
f 45/46/4 52/45/4 51/53/4
f 55/54/3 56/51/3 54/55/3
f 51/53/2 55/54/2 53/56/2
f 52/45/4 56/51/4 55/54/4
f 50/50/1 58/61/1 60/57/1
f 59/58/2 63/64/2 61/59/2
f 54/55/3 60/57/3 59/58/3
f 53/56/2 59/58/2 57/60/2
f 49/52/5 57/60/5 58/61/5
f 61/59/6 63/64/6 64/62/6
f 60/57/3 64/62/3 63/64/3
f 58/61/1 62/63/1 64/62/1
f 62/63/6 68/68/6 67/65/6
f 67/65/2 71/73/2 69/66/2
f 58/61/1 66/69/1 68/68/1
f 61/59/2 67/65/2 65/67/2
f 57/60/4 65/67/4 66/69/4
f 69/66/5 71/73/5 72/70/5
f 69/66/2 75/76/2 73/72/2
f 66/69/1 70/71/1 72/70/1
f 68/68/6 72/70/6 71/73/6
f 65/67/3 73/72/3 74/74/3
f 66/69/1 74/74/1 76/75/1
f 70/71/5 76/75/5 75/76/5
